<?xml version="1.0" encoding="UTF-8" standalone="no"?>
<!DOCTYPE svg PUBLIC "-//W3C//DTD SVG 1.1//EN" "http://www.w3.org/Graphics/SVG/1.1/DTD/svg11.dtd">
<svg width="100%" height="100%" viewBox="0 0 48 70" version="1.1" xmlns="http://www.w3.org/2000/svg" xmlns:xlink="http://www.w3.org/1999/xlink" xml:space="preserve" xmlns:serif="http://www.serif.com/" style="fill-rule:evenodd;clip-rule:evenodd;stroke-linejoin:round;stroke-miterlimit:2;">
    <g id="ARROW-1" serif:id="ARROW 1" transform="matrix(-0.175459,-2.14876e-17,2.14876e-17,-0.175459,47.7948,70)">
        <g id="ARROW-1-GROUP" serif:id="ARROW 1 GROUP">
            <g id="ARROW-11" serif:id="ARROW 1">
                <g transform="matrix(1,0,0,1,125.09,209.815)">
                    <path d="M0,25.702C7.1,25.702 12.852,19.948 12.852,12.85C12.852,5.752 7.1,0 0,0C-7.096,0 -12.85,5.752 -12.85,12.85C-12.85,19.948 -7.096,25.702 0,25.702" style="fill:rgb(241,43,118);fill-rule:nonzero;"/>
                </g>
                <g transform="matrix(-1,0,0,1,101.686,257.073)">
                    <path d="M0,-22.435C6.195,-22.435 11.215,-17.413 11.215,-11.218C11.215,-5.023 6.195,0 0,0C-6.195,0 -11.215,-5.023 -11.215,-11.218C-11.215,-17.413 -6.195,-22.435 0,-22.435" style="fill:rgb(241,43,118);fill-rule:nonzero;"/>
                </g>
                <g transform="matrix(0,-1,-1,0,78.2809,259.464)">
                    <path d="M-9.582,-9.582C-4.29,-9.582 -0.002,-5.292 -0.002,-0.002C-0.002,5.291 -4.29,9.582 -9.582,9.582C-14.874,9.582 -19.162,5.291 -19.162,-0.002C-19.162,-5.292 -14.874,-9.582 -9.582,-9.582" style="fill:rgb(241,43,118);fill-rule:nonzero;"/>
                </g>
                <g transform="matrix(1,0,0,1,54.876,284.287)">
                    <path d="M0,15.891C4.387,15.891 7.945,12.334 7.945,7.948C7.945,3.559 4.387,0 0,0C-4.389,0 -7.947,3.559 -7.947,7.948C-7.947,12.334 -4.389,15.891 0,15.891" style="fill:rgb(241,43,118);fill-rule:nonzero;"/>
                </g>
                <g transform="matrix(1,0,0,1,31.4699,309.112)">
                    <path d="M0,12.621C3.486,12.621 6.311,9.796 6.311,6.311C6.311,2.827 3.486,0 0,0C-3.484,0 -6.31,2.827 -6.31,6.311C-6.31,9.796 -3.484,12.621 0,12.621" style="fill:rgb(241,43,118);fill-rule:nonzero;"/>
                </g>
                <g transform="matrix(0,1,1,0,153.694,184.99)">
                    <path d="M14.488,-14.486C22.489,-14.486 28.973,-8 28.973,0.001C28.973,8.002 22.489,14.488 14.488,14.488C6.487,14.488 0.001,8.002 0.001,0.001C0.001,-8 6.487,-14.486 14.488,-14.486" style="fill:rgb(241,43,118);fill-rule:nonzero;"/>
                </g>
                <g transform="matrix(-1,0,0,1,125.092,189.139)">
                    <path d="M0.002,-25.704C7.098,-25.704 12.852,-19.95 12.852,-12.852C12.852,-5.754 7.098,0 0.002,0C-7.098,0 -12.85,-5.754 -12.85,-12.852C-12.85,-19.95 -7.098,-25.704 0.002,-25.704" style="fill:rgb(241,43,118);fill-rule:nonzero;"/>
                </g>
                <g transform="matrix(0,1,1,0,101.687,141.884)">
                    <path d="M11.214,-11.216C17.409,-11.216 22.431,-6.196 22.431,-0.001C22.431,6.194 17.409,11.214 11.214,11.214C5.019,11.214 -0.001,6.194 -0.001,-0.001C-0.001,-6.196 5.019,-11.216 11.214,-11.216" style="fill:rgb(241,43,118);fill-rule:nonzero;"/>
                </g>
                <g transform="matrix(0,1,1,0,83.4813,120.327)">
                    <path d="M9.58,-9.583C14.872,-9.583 19.163,-5.293 19.163,-0.001C19.163,5.29 14.872,9.58 9.58,9.58C4.29,9.58 0,5.29 0,-0.001C0,-5.293 4.29,-9.583 9.58,-9.583" style="fill:rgb(241,43,118);fill-rule:nonzero;"/>
                </g>
                <g transform="matrix(1,0,0,1,54.876,98.7745)">
                    <path d="M0,15.891C4.387,15.891 7.945,12.332 7.945,7.946C7.945,3.557 4.387,0 0,0C-4.389,0 -7.947,3.557 -7.947,7.946C-7.947,12.332 -4.389,15.891 0,15.891" style="fill:rgb(241,43,118);fill-rule:nonzero;"/>
                </g>
                <g transform="matrix(1,0,0,1,31.4699,77.2198)">
                    <path d="M0,12.621C3.486,12.621 6.311,9.796 6.311,6.31C6.311,2.825 3.486,0 0,0C-3.484,0 -6.31,2.825 -6.31,6.31C-6.31,9.796 -3.484,12.621 0,12.621" style="fill:rgb(241,43,118);fill-rule:nonzero;"/>
                </g>
                <g transform="matrix(-1,0,0,1,168.182,246.157)">
                    <path d="M0,-28.972C8.001,-28.972 14.487,-22.486 14.487,-14.485C14.487,-6.486 8.001,0 0,0C-8.001,0 -14.487,-6.486 -14.487,-14.485C-14.487,-22.486 -8.001,-28.972 0,-28.972" style="fill:rgb(241,43,118);fill-rule:nonzero;"/>
                </g>
                <g transform="matrix(-1,0,0,1,135.81,276.716)">
                    <path d="M0.002,-25.702C7.1,-25.702 12.852,-19.948 12.852,-12.852C12.852,-5.754 7.1,0 0.002,0C-7.096,0 -12.85,-5.754 -12.85,-12.852C-12.85,-19.948 -7.096,-25.702 0.002,-25.702" style="fill:rgb(241,43,118);fill-rule:nonzero;"/>
                </g>
                <g transform="matrix(-1,0,0,1,103.433,307.276)">
                    <path d="M0,-22.432C6.195,-22.432 11.217,-17.412 11.217,-11.217C11.217,-5.022 6.195,0 0,0C-6.195,0 -11.217,-5.022 -11.217,-11.217C-11.217,-17.412 -6.195,-22.432 0,-22.432" style="fill:rgb(241,43,118);fill-rule:nonzero;"/>
                </g>
                <g transform="matrix(-1,0,0,1,71.0592,337.836)">
                    <path d="M0,-19.163C5.292,-19.163 9.58,-14.873 9.58,-9.583C9.58,-4.291 5.292,0 0,0C-5.292,0 -9.58,-4.291 -9.58,-9.583C-9.58,-14.873 -5.292,-19.163 0,-19.163" style="fill:rgb(241,43,118);fill-rule:nonzero;"/>
                </g>
                <g transform="matrix(-1,0,0,1,38.6858,368.394)">
                    <path d="M0.001,-15.891C4.388,-15.891 7.946,-12.335 7.946,-7.946C7.946,-3.557 4.388,0 0.001,0C-4.388,0 -7.945,-3.557 -7.945,-7.946C-7.945,-12.335 -4.388,-15.891 0.001,-15.891" style="fill:rgb(241,43,118);fill-rule:nonzero;"/>
                </g>
                <g transform="matrix(-1,0,0,1,6.3105,398.953)">
                    <path d="M0,-12.621C3.486,-12.621 6.311,-9.796 6.311,-6.31C6.311,-2.825 3.486,0 0,0C-3.486,0 -6.311,-2.825 -6.311,-6.31C-6.311,-9.796 -3.486,-12.621 0,-12.621" style="fill:rgb(241,43,118);fill-rule:nonzero;"/>
                </g>
                <g transform="matrix(0,-1,-1,0,200.557,183.355)">
                    <path d="M-16.123,-16.121C-7.219,-16.121 -0.001,-8.903 -0.001,0.001C-0.001,8.905 -7.219,16.123 -16.123,16.123C-25.027,16.123 -32.243,8.905 -32.243,0.001C-32.243,-8.903 -25.027,-16.121 -16.123,-16.121" style="fill:rgb(241,43,118);fill-rule:nonzero;"/>
                </g>
                <g transform="matrix(-1,0,0,1,168.182,181.77)">
                    <path d="M0,-28.974C8.001,-28.974 14.487,-22.488 14.487,-14.487C14.487,-6.488 8.001,0 0,0C-8.001,0 -14.487,-6.488 -14.487,-14.487C-14.487,-22.488 -8.001,-28.974 0,-28.974" style="fill:rgb(241,43,118);fill-rule:nonzero;"/>
                </g>
                <g transform="matrix(0,1,1,0,135.808,122.236)">
                    <path d="M12.852,-12.85C19.95,-12.85 25.702,-7.098 25.702,0C25.702,7.098 19.95,12.852 12.852,12.852C5.754,12.852 -0,7.098 -0,0C-0,-7.098 5.754,-12.85 12.852,-12.85" style="fill:rgb(241,43,118);fill-rule:nonzero;"/>
                </g>
                <g transform="matrix(0,1,1,0,103.433,91.677)">
                    <path d="M11.217,-11.217C17.412,-11.217 22.434,-6.195 22.434,-0C22.434,6.195 17.412,11.217 11.217,11.217C5.022,11.217 0,6.195 0,-0C0,-6.195 5.022,-11.217 11.217,-11.217" style="fill:rgb(241,43,118);fill-rule:nonzero;"/>
                </g>
                <g transform="matrix(0,1,1,0,71.0593,61.119)">
                    <path d="M9.581,-9.581C14.873,-9.581 19.161,-5.293 19.161,-0.001C19.161,5.292 14.873,9.581 9.581,9.581C4.289,9.581 0.001,5.292 0.001,-0.001C0.001,-5.293 4.289,-9.581 9.581,-9.581" style="fill:rgb(241,43,118);fill-rule:nonzero;"/>
                </g>
                <g transform="matrix(1,0,0,1,38.6848,30.5593)">
                    <path d="M0,15.891C4.389,15.891 7.946,12.335 7.946,7.946C7.946,3.559 4.389,0 0,0C-4.387,0 -7.945,3.559 -7.945,7.946C-7.945,12.335 -4.387,15.891 0,15.891" style="fill:rgb(241,43,118);fill-rule:nonzero;"/>
                </g>
                <g transform="matrix(1,0,0,1,6.3105,-1.77636e-14)">
                    <path d="M0,12.621C3.486,12.621 6.311,9.796 6.311,6.31C6.311,2.825 3.486,0 0,0C-3.486,0 -6.311,2.825 -6.311,6.31C-6.311,9.796 -3.486,12.621 0,12.621" style="fill:rgb(241,43,118);fill-rule:nonzero;"/>
                </g>
                <g transform="matrix(-1,0,0,1,222.775,246.958)">
                    <path d="M0,-32.244C8.902,-32.244 16.122,-25.026 16.122,-16.122C16.122,-7.218 8.902,0 0,0C-8.904,0 -16.122,-7.218 -16.122,-16.122C-16.122,-25.026 -8.904,-32.244 0,-32.244" style="fill:rgb(241,43,118);fill-rule:nonzero;"/>
                </g>
                <g transform="matrix(-1,0,0,1,191.237,276.355)">
                    <path d="M0,-28.319C7.821,-28.319 14.16,-21.981 14.16,-14.159C14.16,-6.34 7.821,0 0,0C-7.819,0 -14.16,-6.34 -14.16,-14.159C-14.16,-21.981 -7.819,-28.319 0,-28.319" style="fill:rgb(241,43,118);fill-rule:nonzero;"/>
                </g>
                <g transform="matrix(-1,0,0,1,159.697,305.751)">
                    <path d="M0,-24.395C6.736,-24.395 12.197,-18.934 12.197,-12.198C12.197,-5.461 6.736,0 0,0C-6.736,0 -12.197,-5.461 -12.197,-12.198C-12.197,-18.934 -6.736,-24.395 0,-24.395" style="fill:rgb(241,43,118);fill-rule:nonzero;"/>
                </g>
                <g transform="matrix(-1,0,0,1,128.162,335.148)">
                    <path d="M0.004,-20.47C5.656,-20.47 10.237,-15.886 10.237,-10.235C10.237,-4.583 5.656,0 0.004,0C-5.65,0 -10.233,-4.583 -10.233,-10.235C-10.233,-15.886 -5.65,-20.47 0.004,-20.47" style="fill:rgb(241,43,118);fill-rule:nonzero;"/>
                </g>
                <g transform="matrix(-1,0,0,1,96.6201,364.546)">
                    <path d="M0,-16.546C4.569,-16.546 8.273,-12.844 8.273,-8.273C8.273,-3.705 4.569,0 0,0C-4.569,0 -8.273,-3.705 -8.273,-8.273C-8.273,-12.844 -4.569,-16.546 0,-16.546" style="fill:rgb(241,43,118);fill-rule:nonzero;"/>
                </g>
                <g transform="matrix(-1,0,0,1,65.0794,393.941)">
                    <path d="M-0.001,-12.621C3.485,-12.621 6.31,-9.794 6.31,-6.31C6.31,-2.825 3.485,0 -0.001,0C-3.487,0 -6.311,-2.825 -6.311,-6.31C-6.311,-9.794 -3.487,-12.621 -0.001,-12.621" style="fill:rgb(241,43,118);fill-rule:nonzero;"/>
                </g>
                <g transform="matrix(1,0,0,1,254.314,181.394)">
                    <path d="M0,36.168C9.987,36.168 18.084,28.071 18.084,18.084C18.084,8.095 9.987,0 0,0C-9.987,0 -18.084,8.095 -18.084,18.084C-18.084,28.071 -9.987,36.168 0,36.168" style="fill:rgb(241,43,118);fill-rule:nonzero;"/>
                </g>
                <g transform="matrix(1,0,0,1,222.775,151.996)">
                    <path d="M0,32.244C8.904,32.244 16.122,25.026 16.122,16.122C16.122,7.218 8.904,0 0,0C-8.902,0 -16.122,7.218 -16.122,16.122C-16.122,25.026 -8.902,32.244 0,32.244" style="fill:rgb(241,43,118);fill-rule:nonzero;"/>
                </g>
                <g transform="matrix(1,0,0,1,191.237,122.598)">
                    <path d="M0,28.319C7.819,28.319 14.16,21.981 14.16,14.161C14.16,6.34 7.819,0 0,0C-7.821,0 -14.16,6.34 -14.16,14.161C-14.16,21.981 -7.821,28.319 0,28.319" style="fill:rgb(241,43,118);fill-rule:nonzero;"/>
                </g>
                <g transform="matrix(1,0,0,1,159.697,93.2021)">
                    <path d="M0,24.395C6.736,24.395 12.197,18.934 12.197,12.198C12.197,5.461 6.736,0 0,0C-6.736,0 -12.197,5.461 -12.197,12.198C-12.197,18.934 -6.736,24.395 0,24.395" style="fill:rgb(241,43,118);fill-rule:nonzero;"/>
                </g>
                <g transform="matrix(1,0,0,1,128.158,63.8049)">
                    <path d="M0,20.47C5.654,20.47 10.237,15.888 10.237,10.235C10.237,4.583 5.654,0 0,0C-5.652,0 -10.233,4.583 -10.233,10.235C-10.233,15.888 -5.652,20.47 0,20.47" style="fill:rgb(241,43,118);fill-rule:nonzero;"/>
                </g>
                <g transform="matrix(1,0,0,1,96.6201,34.4087)">
                    <path d="M0,16.546C4.569,16.546 8.273,12.842 8.273,8.273C8.273,3.702 4.569,0 0,0C-4.569,0 -8.273,3.702 -8.273,8.273C-8.273,12.842 -4.569,16.546 0,16.546" style="fill:rgb(241,43,118);fill-rule:nonzero;"/>
                </g>
                <g transform="matrix(1,0,0,1,65.0804,5.0116)">
                    <path d="M0,12.621C3.486,12.621 6.31,9.796 6.31,6.31C6.31,2.825 3.486,0 0,0C-3.486,0 -6.311,2.825 -6.311,6.31C-6.311,9.796 -3.486,12.621 0,12.621" style="fill:rgb(241,43,118);fill-rule:nonzero;"/>
                </g>
            </g>
        </g>
    </g>
</svg>
